<svg id="b8075969-ef49-4240-a25e-f088236f2735" xmlns="http://www.w3.org/2000/svg" xmlns:xlink="http://www.w3.org/1999/xlink" viewBox="0 0 933.32 629.29"><defs><style>.cls-1{fill:#f2f2f2;}.cls-10,.cls-2,.cls-3{fill:#36c76b;}.cls-3{opacity:0.3;}.cls-13,.cls-15,.cls-3,.cls-6{isolation:isolate;}.cls-15,.cls-4{fill:none;}.cls-10,.cls-4{stroke:#3f3d56;}.cls-10,.cls-15,.cls-4{stroke-miterlimit:10;stroke-width:2px;}.cls-5{fill:#121312;}.cls-6{opacity:0.1;}.cls-7{fill:url(#linear-gradient);}.cls-8{fill:url(#linear-gradient-2);}.cls-9{fill:url(#linear-gradient-3);}.cls-11{fill:#2f2e41;}.cls-12{fill:#ffb9b9;}.cls-13,.cls-15{opacity:0.2;}.cls-14{fill:#cfe9cf;}.cls-15{stroke:#000;}.cls-16{fill:#575a89;}</style><linearGradient id="linear-gradient" x1="194.43" y1="369.08" x2="279.89" y2="369.08" gradientUnits="userSpaceOnUse"><stop offset="0" stop-color="#134e5e"/><stop offset="1" stop-color="#61966e"/></linearGradient><linearGradient id="linear-gradient-2" x1="121.8" y1="469.65" x2="207.26" y2="469.65" xlink:href="#linear-gradient"/><linearGradient id="linear-gradient-3" x1="32.41" y1="549.96" x2="117.87" y2="549.96" gradientTransform="translate(622.29 456.56) rotate(88.09)" xlink:href="#linear-gradient"/></defs><title>cryptocurrency-about</title><circle class="cls-1" cx="603.48" cy="110.66" r="32"/><rect class="cls-1" x="191.82" y="-7.18" width="343" height="642" transform="matrix(0.52, -0.85, 0.85, 0.52, -93.98, 459.96)"/><path class="cls-2" d="M678,427.86c-5-11.5-12.7-21.6-28.1-30.1a98,98,0,0,0-25.4-10,62.11,62.11,0,0,0,16.3-11,56.31,56.31,0,0,0,15.6-23.3,77,77,0,0,0,3.5-28.2c-1.1-16.8-4.4-33.1-13.2-44.8s-21.2-20.7-37.6-27c-12.6-4.8-25.5-7.8-45.5-8.9v-63.9l-40,25v39h-32v-41l-41-23v64h-87.1l28,48c8.65,0,14.51.81,17.5,2.3a13.18,13.18,0,0,1,6.5,6c1.3,2.5,1.9,8.4,1.9,17.5v173.2c0,9-.6,14.8-1.9,17.4s-2,4.9-5.1,6.3-3.2,1.3-11.8,1.3h-.1l-35,48h87v64h41v-64h32v64h40v-64.4c26-1.3,44.5-4.7,59.4-10.3,19.3-7.2,34.1-17.7,44.7-31.5s14.9-34.9,15.8-51.2C684.08,456.76,682.48,438.06,678,427.86Zm-186.5-129.2h0v-1.33h28c15.73,0,68.15-5.24,69,37.57s-69,41.06-69,41.06h-28v-3.3h0Zm0,122h32c6.5,0,28.86,1,37,1.36a35.56,35.56,0,0,1,9.76,1.74c1.15.39,2.24.83,3.42,1.32a49.62,49.62,0,0,1,13.79,7,28.94,28.94,0,0,1,7.13,6.7,35.51,35.51,0,0,1,2.36,3.69,37.15,37.15,0,0,1,4.17,10.29,41.74,41.74,0,0,1,1.47,10.72c0,7.79-1.44,14.24-5,19.7-4.81,8.06-12.7,13.77-21.58,17.8-23,10.44-52.53,9.7-52.53,9.7h-32Z" transform="translate(0 0)"/><path class="cls-3" d="M612.14,112a3.44,3.44,0,0,0-1.57-1.75,5.37,5.37,0,0,0-1.43-.58,3.45,3.45,0,0,0,.92-.64,3.24,3.24,0,0,0,.87-1.35,4.8,4.8,0,0,0,.2-1.64,5.06,5.06,0,0,0-.74-2.6,4.71,4.71,0,0,0-2.11-1.57,7.72,7.72,0,0,0-2.55-.51V97.66l-2.24,1.45v2.26h-1.8V99l-2.3-1.33v3.71h-4.88l1.57,2.79a2.5,2.5,0,0,1,1,.13.79.79,0,0,1,.37.35,2.91,2.91,0,0,1,.1,1v10a2.87,2.87,0,0,1-.1,1c-.08.15-.12.28-.29.36s-.18.08-.66.08h0l-2,2.78h4.88v3.72h2.3v-3.72h1.79v3.72h2.24v-3.74a10.48,10.48,0,0,0,3.33-.6,5.45,5.45,0,0,0,2.51-1.82,5.82,5.82,0,0,0,.88-3A6.67,6.67,0,0,0,612.14,112Zm-10.45-7.5h0v-.08h1.56c.89,0,3.82-.3,3.87,2.18s-3.87,2.38-3.87,2.38h-1.56v-.19h0Zm0,7.08h1.79c.36,0,1.62.06,2.07.08a1.68,1.68,0,0,1,.55.1l.19.07a2.91,2.91,0,0,1,.78.41,1.85,1.85,0,0,1,.4.39,2.37,2.37,0,0,1,.36.81,2.15,2.15,0,0,1,.08.62,2,2,0,0,1-.28,1.14,2.58,2.58,0,0,1-1.2,1,7.66,7.66,0,0,1-2.95.56h-1.79Z" transform="translate(0 0)"/><circle class="cls-2" cx="798.13" cy="464.06" r="11.73"/><line class="cls-4" x1="890.6" y1="591.74" x2="890.6" y2="458.19"/><circle class="cls-5" cx="890.6" cy="458.19" r="18.89"/><path class="cls-5" d="M853.4,533c-27.28,41.83-19.8,95-19.8,95s51.7-14.62,79-56.45,19.8-95,19.8-95S880.68,491.14,853.4,533Z" transform="translate(0 0)"/><path class="cls-2" d="M833.45,627.53s-.66-.11-1.89-.36c-1-.2-2.31-.48-3.95-.87C813,622.85,774,611.17,748.53,580.47,716.66,542,718,488.31,718,488.31s48.74,7.92,80.85,42.44c1.4,1.49,2.75,3,4.07,4.62,27.73,33.45,30.32,78.46,30.52,89.58C833.47,626.62,833.45,627.53,833.45,627.53Z" transform="translate(0 0)"/><path class="cls-4" d="M813.79,533c27.28,41.83,19.81,95,19.81,95s-51.71-14.62-79-56.45-19.8-95-19.8-95S786.51,491.14,813.79,533Z" transform="translate(0 0)"/><path class="cls-6" d="M833.44,625c-.72.87-1.35,1.62-1.88,2.22-1.15,1.32-1.81,2-1.81,2s-.8-1-2.14-2.89c-7.37-10.27-31.07-46.79-29.24-89,.1-2.22.26-4.4.48-6.57,1.4,1.49,2.75,3,4.07,4.62C830.65,568.82,833.24,613.83,833.44,625Z" transform="translate(0 0)"/><path class="cls-2" d="M873.89,540.37c-2.15,49.89-39.19,88.82-39.19,88.82s-33.55-42-31.39-91.87,39.2-88.82,39.2-88.82S876.05,490.47,873.89,540.37Z" transform="translate(0 0)"/><line class="cls-4" x1="834.7" y1="627.77" x2="842.84" y2="450.53"/><line class="cls-4" x1="57.47" y1="627.97" x2="903.49" y2="627.97"/><circle class="cls-7" cx="237.16" cy="369.08" r="42.73"/><circle class="cls-8" cx="164.53" cy="469.65" r="42.73"/><circle class="cls-9" cx="75.14" cy="549.96" r="42.73" transform="matrix(0.03, -1, 1, 0.03, -477.02, 606.75)"/><line class="cls-10" x1="75.1" y1="627.24" x2="75.1" y2="549.73"/><circle class="cls-2" cx="75.1" cy="549.73" r="10.96"/><path class="cls-2" d="M75.1,597.5s-1.57-33.68-33.67-29.77" transform="translate(0 0)"/><line class="cls-4" x1="237.18" y1="627.78" x2="237.18" y2="369.24"/><circle class="cls-2" cx="237.18" cy="369.12" r="10.96"/><circle class="cls-2" cx="203.52" cy="556.17" r="10.96"/><path class="cls-2" d="M237.18,425.11s-1.56-33.68-33.66-29.77" transform="translate(0 0)"/><path class="cls-2" d="M237.18,520.58s-1.56-33.68-33.66-29.76" transform="translate(0 0)"/><path class="cls-4" d="M237.18,624.77s7-65.47-33.66-68.6" transform="translate(0 0)"/><circle class="cls-2" cx="270.85" cy="556.17" r="10.96"/><path class="cls-4" d="M237.19,624.77s-7.05-65.47,33.66-68.6" transform="translate(0 0)"/><circle class="cls-2" cx="271.52" cy="453.35" r="10.96"/><path class="cls-4" d="M237.85,518.46s-7-62,33.67-65.11" transform="translate(0 0)"/><line class="cls-4" x1="164.56" y1="627.41" x2="164.56" y2="469.6"/><circle class="cls-2" cx="164.56" cy="469.6" r="10.96"/><path class="cls-2" d="M164.56,514.24S163,480.56,130.9,484.48" transform="translate(0 0)"/><path class="cls-4" d="M164.56,624.4s7.05-64.76-33.66-67.89" transform="translate(0 0)"/><circle class="cls-2" cx="130.9" cy="556.51" r="10.96"/><circle class="cls-1" cx="766.48" cy="369.66" r="18"/><path class="cls-6" d="M576,501c-23,10.44-52.53,9.7-52.53,9.7h-32v-6.11c13-3.64,31.07-5.89,51-5.89A233.62,233.62,0,0,1,576,501Z" transform="translate(0 0)"/><path class="cls-6" d="M614.48,518.66c0,11.05-32.24,20-72,20s-72-8.95-72-20c0-5.51,8-10.5,21-14.11v6.11h32s29.57.74,52.53-9.7C598.88,504.3,614.48,511,614.48,518.66Z" transform="translate(0 0)"/><rect class="cls-11" x="521.04" y="394.13" width="30.63" height="30.69"/><path class="cls-12" d="M532.44,415.83s2.53,8.88-1.91,9.51a17.34,17.34,0,0,0-7.6,3.17l8.24,10.78h15.21l9.51-9.51s-12.68-9.51-10.14-15.22S532.44,415.83,532.44,415.83Z" transform="translate(0 0)"/><path class="cls-6" d="M532.44,415.83s2.53,8.88-1.91,9.51a17.34,17.34,0,0,0-7.6,3.17l8.24,10.78h15.21l9.51-9.51s-12.68-9.51-10.14-15.22S532.44,415.83,532.44,415.83Z" transform="translate(0 0)"/><polygon class="cls-12" points="536.24 526.14 550.82 531.21 560.96 531.84 560.33 522.97 539.41 516.78 536.24 526.14"/><path class="cls-11" d="M554.94,524.23s0,8.88,1.27,8.88,18.38-1.9,23.45,0,12.68-5.07,8.88-8.88-10-9.5-13.88-8.24-19.72,4.44-19.72,4.44Z" transform="translate(0 0)"/><path class="cls-11" d="M508.35,516s-7.61,15.22-2.54,16.49,10.78-.64,11.41-1.27,9.51-3.17,10.78-1.9,1.27-5.08,1.27-5.08Z" transform="translate(0 0)"/><path class="cls-11" d="M514.69,495.07s-12.05,16.49-3.17,20.92,51.34,4.44,54.51,0,4.44-18.38,0-19.65S514.69,495.07,514.69,495.07Z" transform="translate(0 0)"/><path class="cls-13" d="M514.69,495.07s-12.05,16.49-3.17,20.92,51.34,4.44,54.51,0,4.44-18.38,0-19.65S514.69,495.07,514.69,495.07Z" transform="translate(0 0)"/><circle class="cls-12" cx="537.51" cy="405.69" r="14.58"/><path class="cls-14" d="M514.69,428.51,527.36,426s3.17,10.15,13.32,8.25S553.36,426,553.36,426s7.6,3.17,8.24,3.17,8.87,3.17,8.87,5.08S561,455.14,561,455.14l1.27,34.23-46.91-1.27,3.17-33.6Z" transform="translate(0 0)"/><path class="cls-12" d="M507.71,445s-3.8,33.6-1.27,36.14,12.68,9.51,12.68,9.51V483l-5.07-9.51,5.07-22.19Z" transform="translate(0 0)"/><path class="cls-12" d="M573.32,444s-2.21,34.55-2.21,35.82-5.71,5.7-7.61,5.7-3.17-3.17-3.17-3.17l4.44-5.07-3.17-26Z" transform="translate(0 0)"/><path class="cls-11" d="M567.3,492.54s28.53-15.85,29.16,0-14.58,22.19-14.58,22.19-39.3,11.78-40.89,7.47-4.75-11.28-2.22-11.91,5.71-1.9,7-.64,17.11-9.51,17.11-9.51Z" transform="translate(0 0)"/><path class="cls-15" d="M580.61,490.64s-5.7,2.53-7.6,4.43-10.15,5.07-10.15,5.07" transform="translate(0 0)"/><path class="cls-14" d="M518.49,429.78l-3.8-1.27s-14,14.58-9.51,18.38,7,5.08,8.24,6.34,7.6,1.91,7.6,1.91Z" transform="translate(0 0)"/><path class="cls-14" d="M564.77,433l5.7,1.27s4.44,9.5,5.71,10.77-1.9.64-3.81,3.17-3.8,7-7.6,7-8.88-6.34-8.88-6.34Z" transform="translate(0 0)"/><path class="cls-11" d="M516,498.24s-24.09-17.11-32.33-4.43,35.5,29.79,41.84,32.33,12,5.07,12,5.07,5.7-14,5.7-16.48-4.44-2.54-5.7-2.54-7-1.27-8.24-3.17S516,498.24,516,498.24Z" transform="translate(0 0)"/><path class="cls-15" d="M502.64,493.81s6.34,5.07,12.05,6.33,7.6,4.44,7.6,4.44" transform="translate(0 0)"/><path class="cls-16" d="M511.58,470l.51,26.84a3.35,3.35,0,0,0,3.39,3.3l49.95-.56a3.36,3.36,0,0,0,3.32-3.17l1.52-26.28a3.37,3.37,0,0,0-3.16-3.55H514.94a3.35,3.35,0,0,0-3.36,3.36Z" transform="translate(0 0)"/><path class="cls-11" d="M505.8,428.67c1.36-3,3.19-5.82,4.06-9,1.05-3.81.64-7.84.52-11.79a36.75,36.75,0,0,1,.88-10.4,17.88,17.88,0,0,1,5.14-9c6.64-5.93,18.8-6.36,26.92-3.89,3.19,1,6.6,2.83,7.39,6.07.12.49.18,1,.31,1.49.66,2.41,3.14,3.94,4,6.29,1.15,3-.63,6.32-.86,9.56-.27,3.78,1.59,7.34,3.42,10.66,1.08,2,2.22,4.07,2.11,6.32a8.07,8.07,0,0,1-1.09,3.48,13.29,13.29,0,0,1-11.16,6.39,7,7,0,0,1-4.18-1c-2-1.37-2.56-4.11-2.15-6.48s1.62-4.51,2.56-6.72c.29-.68.55-1.37.79-2.07a14.18,14.18,0,1,0-9.36,1.59,19.22,19.22,0,0,1-.93,10.69,40.7,40.7,0,0,1-4.48,7.82,11,11,0,0,1-2.86,3.2,10.31,10.31,0,0,1-2.44,1c-3.58,1.15-7.35,2.08-11.07,1.56s-7.42-2.77-8.69-6.31C503.55,435.14,504.44,431.67,505.8,428.67Z" transform="translate(0 0)"/><ellipse class="cls-11" cx="536.8" cy="397.5" rx="15.47" ry="8.77"/><path class="cls-3" d="M773.21,370.71a2.62,2.62,0,0,0-1.22-1.36,4.11,4.11,0,0,0-1.11-.45,2.94,2.94,0,0,0,.71-.5,2.61,2.61,0,0,0,.68-1,3.41,3.41,0,0,0,.15-1.27,3.88,3.88,0,0,0-.57-2,3.61,3.61,0,0,0-1.64-1.22,5.82,5.82,0,0,0-2-.4v-2.88l-1.75,1.12v1.76h-1.39v-1.85l-1.79-1v2.88h-3.79l1.22,2.17a1.94,1.94,0,0,1,.76.1.59.59,0,0,1,.29.27,2.36,2.36,0,0,1,.08.79v7.81a2.34,2.34,0,0,1-.08.79c-.06.11-.09.22-.23.28s-.14.06-.51.06h0l-1.53,2.16h3.79v2.89h1.79v-2.89h1.39v2.89h1.74v-2.9a8.46,8.46,0,0,0,2.59-.47,4.25,4.25,0,0,0,2-1.42,4.59,4.59,0,0,0,.69-2.31A5.37,5.37,0,0,0,773.21,370.71Zm-8.12-5.83h0v-.06h1.22c.68,0,3-.24,3,1.69s-3,1.85-3,1.85h-1.22v-.14h0Zm0,5.5h1.39c.28,0,1.26.05,1.61.06a1.56,1.56,0,0,1,.43.08l.15.06a2.28,2.28,0,0,1,.6.31,1.52,1.52,0,0,1,.31.31,1.79,1.79,0,0,1,.28.63,2,2,0,0,1,.07.48,1.64,1.64,0,0,1-.22.89,2,2,0,0,1-.94.8,5.83,5.83,0,0,1-2.29.44h-1.39Z" transform="translate(0 0)"/><circle class="cls-1" cx="64.48" cy="432.66" r="18"/><path class="cls-3" d="M71.21,433.71A2.62,2.62,0,0,0,70,432.35a4.11,4.11,0,0,0-1.11-.45,2.94,2.94,0,0,0,.71-.5,2.61,2.61,0,0,0,.68-1,3.41,3.41,0,0,0,.15-1.27,3.88,3.88,0,0,0-.57-2,3.61,3.61,0,0,0-1.64-1.22,5.82,5.82,0,0,0-2-.4v-2.88l-1.75,1.12v1.76H63.09v-1.85l-1.79-1v2.88H57.51l1.22,2.17a1.94,1.94,0,0,1,.76.1.59.59,0,0,1,.29.27,2.36,2.36,0,0,1,.08.79v7.81a2.34,2.34,0,0,1-.08.79c-.06.11-.09.22-.23.28s-.14.06-.51.06h0l-1.53,2.16H61.3v2.89h1.79v-2.89h1.39v2.89h1.74v-2.9a8.46,8.46,0,0,0,2.59-.47,4.25,4.25,0,0,0,2-1.42,4.59,4.59,0,0,0,.69-2.31A5.37,5.37,0,0,0,71.21,433.71Zm-8.12-5.83h0v-.06h1.22c.68,0,3-.24,3,1.69s-3,1.85-3,1.85H63.09v-.14h0Zm0,5.5h1.39c.28,0,1.26.05,1.61.06a1.56,1.56,0,0,1,.43.08l.15.06a2.28,2.28,0,0,1,.6.31,1.52,1.52,0,0,1,.31.31,1.79,1.79,0,0,1,.28.63,2,2,0,0,1,.07.48,1.64,1.64,0,0,1-.22.89,2,2,0,0,1-.94.8,5.83,5.83,0,0,1-2.29.44H63.09Z" transform="translate(0 0)"/></svg>